<?xml version="1.0" encoding="UTF-8"?>
<svg xmlns="http://www.w3.org/2000/svg" xmlns:xlink="http://www.w3.org/1999/xlink" width="594.95996pt" height="841.91998pt" viewBox="0 0 594.95996 841.91998" version="1.1">
<defs>
<clipPath id="clip1">
  <path d="M 36 36 L 559 36 L 559 805.867188 L 36 805.867188 Z M 36 36 "/>
</clipPath>
</defs>
<g id="surface1">
<g clip-path="url(#clip1)" clip-rule="nonzero">
<path style=" stroke:none;fill-rule:nonzero;fill:rgb(100%,100%,100%);fill-opacity:1;" d="M 36 36 L 559 36 L 559 805.867188 L 36 805.867188 Z M 36 36 "/>
</g>
<path style=" stroke:none;fill-rule:nonzero;fill:rgb(30.198669%,30.198669%,30.198669%);fill-opacity:1;" d="M 297.5 111.683594 C 194.558594 111.683594 111.683594 194.558594 111.683594 297.5 C 111.683594 400.441406 194.558594 483.316406 297.5 483.316406 C 400.441406 483.316406 483.316406 400.441406 483.316406 297.5 C 483.316406 194.558594 400.441406 111.683594 297.5 111.683594 Z M 297.5 134.910156 C 387.574219 134.910156 460.089844 207.425781 460.089844 297.5 C 460.089844 387.574219 387.574219 460.089844 297.5 460.089844 C 207.425781 460.089844 134.910156 387.574219 134.910156 297.5 C 134.910156 207.425781 207.425781 134.910156 297.5 134.910156 Z M 274.273438 181.363281 L 274.273438 227.820312 L 320.726562 227.820312 L 320.726562 181.363281 Z M 274.273438 251.046875 L 274.273438 413.636719 L 320.726562 413.636719 L 320.726562 251.046875 Z M 274.273438 251.046875 "/>
</g>
</svg>
